<?xml version="1.0" standalone="no"?>
<!DOCTYPE svg PUBLIC "-//W3C//DTD SVG 20010904//EN"
 "http://www.w3.org/TR/2001/REC-SVG-20010904/DTD/svg10.dtd">
<svg version="1.0" xmlns="http://www.w3.org/2000/svg"
 width="1229.000000pt" height="1229.000000pt" viewBox="0 0 1229.000000 1229.000000"
 preserveAspectRatio="xMidYMid meet">
<metadata>
Created by potrace 1.14, written by Peter Selinger 2001-2017
</metadata>
<g transform="translate(0.000000,1229.000000) scale(0.100000,-0.100000)"
fill="#000000" stroke="none">
<path d="M4908 11272 c-14 -9 -48 -30 -75 -46 -85 -51 -331 -250 -398 -321
-145 -154 -238 -258 -302 -337 -41 -51 -82 -102 -91 -113 -18 -22 -97 -129
-153 -210 -89 -126 -327 -534 -390 -668 -23 -49 -42 -73 -68 -89 -54 -33 -160
-119 -216 -177 -47 -48 -75 -67 -59 -38 4 6 -4 1 -19 -13 -15 -14 -36 -54 -48
-90 -18 -53 -35 -78 -95 -140 -40 -41 -84 -88 -97 -104 -24 -28 -25 -28 -36
-8 -6 11 -11 32 -11 46 0 54 -50 45 -119 -22 -51 -49 -134 -170 -167 -240 -24
-52 -36 -57 -68 -27 -21 19 -31 22 -49 15 -29 -11 -90 -69 -130 -123 -87 -115
-229 -363 -252 -440 l-12 -42 -21 92 c-12 51 -28 109 -37 129 -8 20 -15 45
-15 55 0 19 -24 27 -34 11 -4 -7 -11 -75 -21 -197 -9 -107 -16 -172 -32 -270
-2 -16 -6 -43 -8 -60 -2 -16 -5 -31 -6 -32 -3 -5 -5 -16 -13 -78 -14 -98 -15
-107 -17 -173 -2 -59 -16 -92 -38 -92 -4 0 -37 -28 -72 -63 -57 -57 -90 -100
-165 -217 -23 -37 -59 -134 -69 -185 -12 -67 -4 -221 13 -250 4 -5 7 -16 8
-23 1 -7 16 -42 33 -78 44 -94 124 -171 235 -223 70 -34 86 -46 81 -59 -7 -19
-40 -166 -49 -222 -3 -19 -9 -51 -12 -70 -3 -19 -12 -71 -19 -115 -20 -115
-25 -160 -29 -252 -2 -45 -6 -85 -9 -90 -2 -4 -1 -19 5 -32 7 -21 11 -23 23
-10 8 8 44 72 81 143 36 71 77 147 90 167 13 21 24 41 24 43 0 3 23 45 52 93
l51 87 13 -52 c7 -28 47 -140 88 -249 121 -319 229 -511 385 -688 l71 -79 -58
-16 c-121 -34 -288 -147 -392 -266 -97 -111 -183 -290 -229 -477 -5 -21 -12
-41 -14 -44 -14 -13 -151 354 -152 407 0 8 -8 16 -17 18 -19 4 -31 -19 -42
-74 -3 -16 -13 -65 -22 -109 -31 -158 -23 -439 16 -570 20 -65 50 -126 66
-132 8 -3 32 1 52 10 20 9 49 18 64 21 24 5 28 3 34 -21 16 -74 50 -183 70
-222 l22 -44 -27 -24 -26 -24 35 4 c32 4 42 -2 110 -63 150 -134 212 -163 350
-163 76 0 194 27 261 60 95 46 201 142 230 209 20 44 26 127 14 189 -10 50
-72 230 -94 274 -12 22 -17 41 -12 41 5 0 12 -4 16 -9 3 -6 59 -40 125 -77 88
-48 128 -77 150 -107 l29 -40 -6 39 c-3 21 -9 44 -13 49 -4 6 -13 28 -20 50
-35 113 -186 362 -260 429 -40 36 -41 38 -26 61 17 25 98 85 115 85 6 0 11 4
11 9 0 9 105 41 155 47 16 3 38 7 48 10 11 3 53 -16 115 -54 109 -68 339 -182
366 -182 5 0 59 -24 120 -54 175 -86 291 -118 541 -150 22 -3 53 -8 68 -11 91
-18 765 -19 867 -1 69 12 144 33 272 77 l118 41 47 -28 c27 -15 73 -45 103
-66 52 -37 56 -38 70 -21 9 10 20 19 25 20 6 1 55 18 111 37 55 19 108 36 118
38 13 2 30 -23 69 -97 67 -127 135 -233 167 -263 26 -24 91 -61 119 -68 9 -2
39 -9 68 -16 63 -16 74 -25 40 -33 -62 -16 -61 -74 0 -94 50 -16 87 -18 146
-9 l48 7 68 -67 c86 -86 277 -246 361 -303 36 -24 67 -46 70 -49 14 -15 225
-152 295 -192 259 -147 667 -317 850 -353 61 -12 138 -22 170 -20 32 1 34 -1
19 -12 -10 -7 -24 -13 -31 -13 -22 0 -378 -133 -385 -144 -4 -6 -8 -14 -8 -17
0 -11 82 -38 165 -54 85 -17 90 -18 218 -35 93 -13 392 -17 482 -6 63 8 192
33 204 40 3 2 69 6 146 7 l140 4 47 -33 c25 -17 67 -42 92 -55 44 -22 50 -23
118 -11 40 7 89 15 108 18 19 3 46 8 60 10 33 6 82 13 153 21 63 8 102 31 92
55 -3 9 -44 28 -90 44 -47 16 -85 32 -85 35 0 3 44 21 98 39 281 97 391 204
478 471 38 115 33 240 -14 341 -30 66 -140 190 -168 190 -6 0 -23 11 -37 24
-14 13 -28 21 -31 19 -3 -3 -24 -6 -47 -7 -35 -1 -49 5 -86 38 -72 63 -215 97
-393 92 -155 -4 -187 -13 -243 -64 -15 -14 -35 -27 -45 -28 -62 -10 -67 -9
-80 18 -7 16 -16 28 -20 29 -4 1 -23 3 -43 4 -19 2 -89 16 -155 32 -118 27
-277 40 -299 22 -6 -4 -38 13 -75 41 -185 140 -239 184 -243 201 -5 17 -3 18
24 4 74 -39 76 -39 130 12 l50 46 27 -20 c26 -19 126 -56 187 -68 144 -30 185
-35 315 -35 190 -1 329 26 455 87 139 67 231 191 241 323 1 19 4 57 7 84 5 42
1 79 -17 161 -24 107 -124 230 -253 311 -40 25 -72 48 -72 52 4 29 -9 49 -68
97 -38 31 -96 72 -130 92 -75 42 -229 105 -298 122 -95 24 -195 10 -195 -26 0
-16 -5 -16 -57 2 -40 14 -84 24 -128 30 -11 1 -31 -2 -44 -6 -20 -8 -23 -14
-18 -43 l5 -33 -41 8 c-23 4 -64 6 -92 5 -79 -4 -276 -56 -310 -81 -27 -20
-46 -24 -143 -27 -61 -3 -110 -2 -108 1 2 3 7 29 10 56 3 28 8 65 12 84 7 42
-1 77 -21 84 -17 7 -100 -55 -162 -120 -24 -25 -43 -43 -44 -41 -1 1 -3 21 -4
43 -10 113 -15 147 -34 201 -12 32 -29 65 -39 72 -9 7 -24 18 -33 25 -26 20
-60 39 -151 84 -49 24 -88 49 -88 56 0 7 5 40 11 72 15 84 18 148 8 162 -9 9
21 26 71 38 3 1 12 4 20 8 87 35 291 94 385 113 11 2 31 6 45 9 14 3 42 7 63
10 73 10 112 16 137 20 102 19 427 26 559 12 41 -5 86 -14 101 -22 17 -9 45
-47 76 -102 64 -114 181 -272 257 -345 61 -59 138 -105 157 -93 14 9 5 51 -25
119 -26 58 -69 183 -94 271 l-17 61 60 -13 c34 -7 75 -13 93 -13 22 0 37 -8
52 -27 l20 -28 1 26 c0 21 5 25 28 26 229 5 345 76 388 235 31 114 17 207 -54
358 -76 162 -219 305 -370 371 -31 13 -33 16 -28 54 l6 40 -20 -25 c-11 -14
-20 -28 -20 -32 0 -14 -51 12 -80 40 -15 15 -45 41 -66 57 -20 17 -51 42 -68
56 -78 66 -252 164 -426 239 -41 18 -76 34 -78 35 -2 2 25 30 60 64 50 50 74
65 118 77 30 8 64 19 75 24 33 14 238 82 243 80 9 -3 62 33 63 43 0 6 2 22 5
35 2 12 -1 22 -7 22 -6 0 -8 15 -5 38 9 60 10 155 2 179 -11 34 -66 45 -135
28 -104 -25 -174 -45 -205 -59 -17 -8 -56 -24 -86 -36 -30 -12 -77 -33 -103
-46 l-48 -23 6 22 c3 12 15 42 27 67 18 40 36 56 156 135 290 191 500 307 875
480 70 33 89 46 103 74 9 19 38 66 64 105 26 39 53 82 60 96 7 14 16 27 19 30
4 3 26 39 51 80 24 41 47 76 51 78 12 5 -14 42 -28 42 -7 0 -13 -5 -13 -10 0
-14 -34 -26 -94 -34 -27 -4 -54 -10 -58 -12 -5 -3 -23 -8 -39 -11 -29 -4 -223
-65 -264 -82 -11 -5 -65 -28 -120 -51 -280 -118 -772 -405 -1044 -608 -42 -31
-110 -79 -151 -107 -41 -27 -77 -52 -80 -55 -3 -3 -25 -21 -50 -40 -25 -19
-47 -37 -50 -40 -3 -3 -34 -29 -70 -58 -36 -28 -75 -61 -88 -73 -22 -22 -25
-46 -4 -42 6 2 16 -16 22 -40 6 -23 14 -51 17 -62 3 -11 5 -20 4 -20 -1 0 5
-22 13 -49 27 -89 40 -276 25 -341 -4 -16 -10 -46 -13 -65 -3 -19 -12 -55 -19
-80 l-14 -45 -12 50 c-6 28 -14 61 -17 75 -19 91 -28 120 -55 190 -16 43 -43
97 -60 120 l-31 42 33 117 c39 140 51 194 89 376 16 77 31 151 34 165 10 45
26 125 30 145 2 11 7 31 10 45 3 14 8 36 10 50 2 14 9 45 14 70 10 42 21 107
27 158 7 62 -49 28 -171 -105 -131 -142 -221 -252 -293 -358 l-59 -86 -47 93
c-25 51 -60 110 -76 131 -17 20 -27 36 -22 35 7 -2 87 11 103 17 3 1 23 5 45
10 22 4 46 13 54 19 8 6 15 9 15 7 1 -2 12 -1 26 3 73 20 100 30 100 38 0 11
-262 273 -335 335 -124 104 -246 201 -295 234 -47 32 -50 36 -45 67 4 18 8 57
10 86 2 30 5 58 7 62 5 22 -50 207 -77 254 l-14 25 -75 -77 c-41 -42 -80 -93
-87 -112 -7 -20 -17 -36 -21 -36 -4 0 -8 -8 -8 -17 -1 -10 -16 11 -35 47 l-33
66 45 154 c47 164 72 252 79 285 3 11 7 79 9 150 2 72 7 201 10 289 6 182 9
179 -78 62 -184 -246 -352 -589 -443 -906 -16 -52 -29 -97 -30 -98 -1 -2 -29
14 -62 37 -75 51 -164 95 -222 112 -25 7 -49 16 -55 20 -13 9 -69 21 -119 24
-23 2 -97 22 -166 44 -68 23 -130 41 -137 41 -20 0 -16 14 10 30 22 14 27 16
47 19 5 0 14 10 19 20 10 17 3 22 -62 46 -40 14 -79 27 -87 29 -8 2 -22 6 -30
9 -13 5 -113 30 -175 43 -38 8 -226 29 -360 40 -106 9 -382 10 -455 2 -86 -10
-114 -15 -185 -32 -33 -8 -61 -14 -62 -12 -3 3 98 275 132 356 58 139 376 761
469 918 104 175 106 178 93 191 -14 14 -16 13 -49 -7z m-2747 -3442 c-25 -49
-47 -88 -48 -86 -1 1 -4 27 -7 57 -3 30 -10 79 -16 108 -5 30 -10 57 -10 61 0
4 28 -6 63 -22 l63 -30 -45 -88z m6583 -712 c42 -44 76 -84 76 -88 0 -4 -25
-8 -57 -9 -31 -1 -70 -4 -87 -6 -83 -11 -126 -15 -126 -12 0 5 60 120 86 164
11 18 22 33 26 33 3 0 40 -37 82 -82z m-6753 -244 c1 -120 5 -228 9 -239 3
-11 5 -28 2 -38 -3 -14 -9 -11 -33 19 -104 131 -131 255 -79 372 20 46 85 120
96 109 2 -2 5 -102 5 -223z"/>
</g>
</svg>
